<svg width="200" height="200" viewBox="0 0 200 200" fill="none" xmlns="http://www.w3.org/2000/svg">
<g clip-path="url(#clip0_105_2)">
<mask id="mask0_105_2" style="mask-type:luminance" maskUnits="userSpaceOnUse" x="0" y="0" width="200" height="200">
<path d="M200 0H0V200H200V0Z" fill="white"/>
</mask>
<g mask="url(#mask0_105_2)">
<path fill-rule="evenodd" clip-rule="evenodd" d="M50.7143 0H0.71429V50C0.71429 75.462 19.7466 96.4788 44.361 99.6002C19.4015 102.402 4.22025e-06 123.578 2.18557e-06 149.286L0 199.286H50C75.462 199.286 96.4788 180.253 99.6002 155.639C102.402 180.599 123.578 200 149.286 200H199.286V150C199.286 124.538 180.253 103.521 155.639 100.4C180.599 97.5984 200 76.422 200 50.7143V0.714286L150 0.714284C124.538 0.714282 103.521 19.7466 100.4 44.361C97.5984 19.4015 76.422 0 50.7143 0Z" fill="#DBDBDB"/>
</g>
<path d="M69.13 68.6C69.49 69.98 69.28 71.24 68.5 72.38C67.72 73.46 66.61 74 65.17 74H62.56C61.72 74 60.91 73.73 60.13 73.19C59.41 72.65 58.9 71.99 58.6 71.21L55.18 60.86C54.94 60.08 54.43 59.69 53.65 59.69H38.26C37.48 59.69 36.97 60.08 36.73 60.86L33.31 71.21C33.01 71.99 32.5 72.65 31.78 73.19C31.06 73.73 30.25 74 29.35 74H26.74C25.3 74 24.19 73.46 23.41 72.38C22.57 71.18 22.39 69.92 22.87 68.6L40.33 15.95C40.63 15.11 41.11 14.45 41.77 13.97C42.49 13.43 43.27 13.16 44.11 13.16H47.8C48.64 13.16 49.42 13.43 50.14 13.97C50.86 14.45 51.34 15.11 51.58 15.95L69.13 68.6ZM50.95 47.9L46.45 34.13C46.15 33.71 45.82 33.71 45.46 34.13L40.96 47.9C40.84 48.2 40.87 48.47 41.05 48.71C41.23 48.95 41.47 49.07 41.77 49.07H50.14C50.44 49.07 50.68 48.95 50.86 48.71C51.04 48.47 51.07 48.2 50.95 47.9Z" fill="#3D3D3D"/>
<path d="M176.5 127.23C177.22 128.61 177.19 130.02 176.41 131.46L159.58 158.82C159.34 159.12 159.22 159.63 159.22 160.35V181.86C159.22 183 158.8 183.99 157.96 184.83C157.18 185.61 156.22 186 155.08 186H152.56C151.42 186 150.43 185.61 149.59 184.83C148.81 183.99 148.42 183 148.42 181.86V160.26C148.42 159.6 148.27 159.12 147.97 158.82L131.23 131.46C130.45 129.96 130.42 128.58 131.14 127.32C131.92 125.88 133.12 125.16 134.74 125.16H137.62C139.24 125.16 140.44 125.82 141.22 127.14C141.88 128.16 142.87 129.78 144.19 132C145.51 134.22 146.98 136.65 148.6 139.29C150.22 141.87 151.75 144.33 153.19 146.67C153.31 146.91 153.49 147.03 153.73 147.03C154.03 147.03 154.27 146.91 154.45 146.67C156.07 144.03 157.66 141.45 159.22 138.93C160.78 136.35 162.19 134.04 163.45 132C164.77 129.9 165.76 128.28 166.42 127.14C167.2 125.82 168.37 125.16 169.93 125.16H172.81C174.49 125.16 175.72 125.85 176.5 127.23Z" fill="#3D3D3D"/>
</g>
<defs>
<clipPath id="clip0_105_2">
<rect width="200" height="200" fill="white"/>
</clipPath>
</defs>
</svg>
